{"title":"The Late Late Show with Craig Ferguson. 27.07.2011. 720p","uid":6569283,"size":910386087,"categoryP":"video","categoryS":"hd___tv_shows","magnet":"?xt=urn:btih:22abcc85f788d04493843c2b2305f47ca20881fa&amp;dn=The+Late+Late+Show+with+Craig+Ferguson.+27.07.2011.+720p&amp;tr=udp%3A%2F%2Ftracker.openbittorrent.com%3A80&amp;tr=udp%3A%2F%2Fopen.demonii.com%3A1337&amp;tr=udp%3A%2F%2Ftracker.coppersurfer.tk%3A6969&amp;tr=udp%3A%2F%2Fexodus.desync.com%3A6969","seeders":1,"leechers":1,"uploader":"apfelsine91","files":-1,"time":1311870990,"description":"The Late Late Show with Craig Ferguson is a Peabody Award-winning American late-night talk show hosted by Scottish American comedian Craig Ferguson. Ferguson, the third regular host of the Late Late Show franchise, follows Late Show with David Letterman in the CBS late-night lineup. While the majority of the episodes focus on humor, Ferguson has also addressed difficult subject matter, such as the deaths of his parents, and serious interviews with Archbishop Desmond Tutu and Stephen Fry. The show's main competition comes from Late Night with Jimmy Fallon and as of May 2010,[citation needed] the two shows were roughly tied in the ratings, with Ferguson's show drawing in 1.7 million viewers.\n\nFormat                           : Matroska\nFormat version                   : Version 2\nFile size                        : 936 MiB\nDuration                         : 39mn 56s\nOverall bit rate                 : 3 275 Kbps\n\nVideo\nID                               : 2\nFormat                           : AVC\nDuration                         : 39mn 56s\nBit rate                         : 2 826 Kbps\nWidth                            : 1 280 pixels\nHeight                           : 720 pixels\nDisplay aspect ratio             : 16:9\nFrame rate                       : 29.970 fps\nColor space                      : YUV\nChroma subsampling               : 4:2:0\nBit depth                        : 8 bits\nScan type                        : Progressive\nBits/(Pixel*Frame)               : 0.102\nStream size                      : 807 MiB (86%)\nLanguage                         : English\n\nAudio\nID                               : 1\nFormat                           : AC-3\nDuration                         : 39mn 56s\nBit rate                         : 384 Kbps\nChannel(s)                       : 6 channels\nChannel positions                : Front: L C R, Side: L R, LFE\nSampling rate                    : 48.0 KHz\nBit depth                        : 16 bits\nStream size                      : 110 MiB (12%)","torrent":{"xt":"urn:btih:22abcc85f788d04493843c2b2305f47ca20881fa","amp;dn":"The+Late+Late+Show+with+Craig+Ferguson.+27.07.2011.+720p","amp;tr":["udp%3A%2F%2Ftracker.openbittorrent.com%3A80","udp%3A%2F%2Fopen.demonii.com%3A1337","udp%3A%2F%2Ftracker.coppersurfer.tk%3A6969","udp%3A%2F%2Fexodus.desync.com%3A6969"],"infoHash":"22abcc85f788d04493843c2b2305f47ca20881fa","infoHashBuffer":{"type":"Buffer","data":[34,171,204,133,247,136,208,68,147,132,60,43,35,5,244,124,162,8,129,250]},"announce":[],"urlList":[]}}